<?xml version='1.0' encoding='UTF-8'?>
<!DOCTYPE svg PUBLIC "-//W3C//DTD SVG 1.1//EN" "http://www.w3.org/Graphics/SVG/1.1/DTD/svg11.dtd">
<!-- Generated by graphviz version 2.43.0 (0)
 -->
<!-- Title: %3 Pages: 1 -->
<svg xmlns="http://www.w3.org/2000/svg" xmlns:xlink="http://www.w3.org/1999/xlink" width="413pt" height="637pt" viewBox="0.00 0.00 412.50 637.00">
  <style>
    @import url("https://fonts.googleapis.com/css?family=Roboto:400,400i,700,700i");
    </style>
  <g id="graph0" class="graph" transform="scale(1 1) rotate(0) translate(4 633)">
    <title>%3</title>
    <polygon fill="#eeeeee" stroke="transparent" points="-4,4 -4,-633 408.5,-633 408.5,4 -4,4"/>
    <!-- Question -->
    <g id="node1" class="table-hover">
      <title>Question</title>
      <g id="a_node1">
        <a xlink:href="http://Question_details.html" xlink:title="&lt;TABLE&gt;">
          <polygon fill="#3f51b5" stroke="transparent" points="33,-99 33,-118 240,-118 240,-99 33,-99"/>
          <polygon fill="none" stroke="black" points="33,-99 33,-118 240,-118 240,-99 33,-99"/>
          <text text-anchor="start" x="109.5" y="-105.4" font-family="Roboto" font-size="12.00" fill="white">Question</text>
          <polygon fill="#bbdefb" stroke="transparent" points="33,-80 33,-99 107,-99 107,-80 33,-80"/>
          <polygon fill="none" stroke="black" points="33,-80 33,-99 107,-99 107,-80 33,-80"/>
          <text text-anchor="start" x="36" y="-86.4" font-family="Roboto" font-size="12.00">id_question</text>
          <polygon fill="#bbdefb" stroke="transparent" points="107,-80 107,-99 240,-99 240,-80 107,-80"/>
          <polygon fill="none" stroke="black" points="107,-80 107,-99 240,-99 240,-80 107,-80"/>
          <text text-anchor="start" x="110" y="-86.4" font-family="Roboto" font-size="12.00">INTEGER (PK,Unique)</text>
          <polygon fill="#bbdefb" stroke="transparent" points="33,-61 33,-80 107,-80 107,-61 33,-61"/>
          <polygon fill="none" stroke="black" points="33,-61 33,-80 107,-80 107,-61 33,-61"/>
          <text text-anchor="start" x="38" y="-67.4" font-family="Roboto" font-size="12.00">id_chapter</text>
          <polygon fill="#bbdefb" stroke="transparent" points="107,-61 107,-80 240,-80 240,-61 107,-61"/>
          <polygon fill="none" stroke="black" points="107,-61 107,-80 240,-80 240,-61 107,-61"/>
          <text text-anchor="start" x="140.5" y="-67.4" font-family="Roboto" font-size="12.00">INTEGER ()</text>
          <polygon fill="#bbdefb" stroke="transparent" points="33,-42 33,-61 107,-61 107,-42 33,-42"/>
          <polygon fill="none" stroke="black" points="33,-42 33,-61 107,-61 107,-42 33,-42"/>
          <text text-anchor="start" x="39.5" y="-48.4" font-family="Roboto" font-size="12.00">q_number</text>
          <polygon fill="#bbdefb" stroke="transparent" points="107,-42 107,-61 240,-61 240,-42 107,-42"/>
          <polygon fill="none" stroke="black" points="107,-42 107,-61 240,-61 240,-42 107,-42"/>
          <text text-anchor="start" x="140.5" y="-48.4" font-family="Roboto" font-size="12.00">INTEGER ()</text>
          <polygon fill="#bbdefb" stroke="transparent" points="33,-23 33,-42 107,-42 107,-23 33,-23"/>
          <polygon fill="none" stroke="black" points="33,-23 33,-42 107,-42 107,-23 33,-23"/>
          <text text-anchor="start" x="54" y="-29.4" font-family="Roboto" font-size="12.00">q_file</text>
          <polygon fill="#bbdefb" stroke="transparent" points="107,-23 107,-42 240,-42 240,-23 107,-23"/>
          <polygon fill="none" stroke="black" points="107,-23 107,-42 240,-42 240,-23 107,-23"/>
          <text text-anchor="start" x="119" y="-29.4" font-family="Roboto" font-size="12.00">VARCHAR(1000) ()</text>
          <polygon fill="#bbdefb" stroke="transparent" points="33,-4 33,-23 107,-23 107,-4 33,-4"/>
          <polygon fill="none" stroke="black" points="33,-4 33,-23 107,-23 107,-4 33,-4"/>
          <text text-anchor="start" x="44" y="-10.4" font-family="Roboto" font-size="12.00">question</text>
          <polygon fill="#bbdefb" stroke="transparent" points="107,-4 107,-23 240,-23 240,-4 107,-4"/>
          <polygon fill="none" stroke="black" points="107,-4 107,-23 240,-23 240,-4 107,-4"/>
          <text text-anchor="start" x="119" y="-10.4" font-family="Roboto" font-size="12.00">VARCHAR(1000) ()</text>
        </a>
      </g>
    </g>
    <!-- Answer -->
    <g id="node2" class="table-hover">
      <title>Answer</title>
      <g id="a_node2">
        <a xlink:href="http://Answer_details.html" xlink:title="&lt;TABLE&gt;">
          <polygon fill="#3f51b5" stroke="transparent" points="190,-268 190,-287 397,-287 397,-268 190,-268"/>
          <polygon fill="none" stroke="black" points="190,-268 190,-287 397,-287 397,-268 190,-268"/>
          <text text-anchor="start" x="271" y="-274.4" font-family="Roboto" font-size="12.00" fill="white">Answer</text>
          <polygon fill="#bbdefb" stroke="transparent" points="190,-249 190,-268 264,-268 264,-249 190,-249"/>
          <polygon fill="none" stroke="black" points="190,-249 190,-268 264,-268 264,-249 190,-249"/>
          <text text-anchor="start" x="196.5" y="-255.4" font-family="Roboto" font-size="12.00">id_answer</text>
          <polygon fill="#bbdefb" stroke="transparent" points="264,-249 264,-268 397,-268 397,-249 264,-249"/>
          <polygon fill="none" stroke="black" points="264,-249 264,-268 397,-268 397,-249 264,-249"/>
          <text text-anchor="start" x="267" y="-255.4" font-family="Roboto" font-size="12.00">INTEGER (PK,Unique)</text>
          <polygon fill="#bbdefb" stroke="transparent" points="190,-230 190,-249 264,-249 264,-230 190,-230"/>
          <polygon fill="none" stroke="black" points="190,-230 190,-249 264,-249 264,-230 190,-230"/>
          <text text-anchor="start" x="193" y="-236.4" font-family="Roboto" font-size="12.00">id_question</text>
          <polygon fill="#bbdefb" stroke="transparent" points="264,-230 264,-249 397,-249 397,-230 264,-230"/>
          <polygon fill="none" stroke="black" points="264,-230 264,-249 397,-249 397,-230 264,-230"/>
          <text text-anchor="start" x="297.5" y="-236.4" font-family="Roboto" font-size="12.00">INTEGER ()</text>
          <polygon fill="#bbdefb" stroke="transparent" points="190,-211 190,-230 264,-230 264,-211 190,-211"/>
          <polygon fill="none" stroke="black" points="190,-211 190,-230 264,-230 264,-211 190,-211"/>
          <text text-anchor="start" x="196.5" y="-217.4" font-family="Roboto" font-size="12.00">a_number</text>
          <polygon fill="#bbdefb" stroke="transparent" points="264,-211 264,-230 397,-230 397,-211 264,-211"/>
          <polygon fill="none" stroke="black" points="264,-211 264,-230 397,-230 397,-211 264,-211"/>
          <text text-anchor="start" x="297.5" y="-217.4" font-family="Roboto" font-size="12.00">INTEGER ()</text>
          <polygon fill="#bbdefb" stroke="transparent" points="190,-192 190,-211 264,-211 264,-192 190,-192"/>
          <polygon fill="none" stroke="black" points="190,-192 190,-211 264,-211 264,-192 190,-192"/>
          <text text-anchor="start" x="205" y="-198.4" font-family="Roboto" font-size="12.00">answer</text>
          <polygon fill="#bbdefb" stroke="transparent" points="264,-192 264,-211 397,-211 397,-192 264,-192"/>
          <polygon fill="none" stroke="black" points="264,-192 264,-211 397,-211 397,-192 264,-192"/>
          <text text-anchor="start" x="276" y="-198.4" font-family="Roboto" font-size="12.00">VARCHAR(1000) ()</text>
          <polygon fill="#bbdefb" stroke="transparent" points="190,-173 190,-192 264,-192 264,-173 190,-173"/>
          <polygon fill="none" stroke="black" points="190,-173 190,-192 264,-192 264,-173 190,-173"/>
          <text text-anchor="start" x="198" y="-179.4" font-family="Roboto" font-size="12.00">is_correct</text>
          <polygon fill="#bbdefb" stroke="transparent" points="264,-173 264,-192 397,-192 397,-173 264,-173"/>
          <polygon fill="none" stroke="black" points="264,-173 264,-192 397,-192 397,-173 264,-173"/>
          <text text-anchor="start" x="294" y="-179.4" font-family="Roboto" font-size="12.00">BOOLEAN ()</text>
        </a>
      </g>
    </g>
    <!-- Answer&#45;&gt;Question -->
    <g id="edge1" class="edge-hover edge-from-None edge-to-None">
      <title>Answer-&gt;Question</title>
      <g id="a_edge1">
        <a xlink:title="Relation between Answer and Question">
          <path fill="none" stroke="#1e88e5" stroke-dasharray="5,2" d="M219.62,-168.68C213.49,-162.88 207.53,-156.94 202,-151 195.93,-144.49 189.9,-137.42 184.09,-130.22"/>
          <polygon fill="#1e88e5" stroke="#1e88e5" points="186.83,-128.04 177.89,-122.36 181.34,-132.38 186.83,-128.04"/>
        </a>
      </g>
      <text text-anchor="middle" x="228" y="-143" font-family="Roboto" font-size="10.00">id_chapter</text>
    </g>
    <!-- Answer&#45;&gt;Question -->
    <g id="edge2" class="edge-hover edge-from-None edge-to-None">
      <title>Answer-&gt;Question</title>
      <g id="a_edge2">
        <a xlink:title="Relation between Answer and Question">
          <path fill="none" stroke="#1e88e5" stroke-dasharray="5,2" d="M272.29,-168.77C267.24,-158.56 261.17,-148.52 254,-140 250.85,-136.26 247.48,-132.64 243.94,-129.13"/>
          <polygon fill="#1e88e5" stroke="#1e88e5" points="246.14,-126.39 236.46,-122.08 241.34,-131.48 246.14,-126.39"/>
        </a>
      </g>
      <text text-anchor="middle" x="285.5" y="-143" font-family="Roboto" font-size="10.00">q_number</text>
    </g>
    <!-- Form -->
    <g id="node3" class="table-hover">
      <title>Form</title>
      <g id="a_node3">
        <a xlink:href="http://Form_details.html" xlink:title="&lt;TABLE&gt;">
          <polygon fill="#3f51b5" stroke="transparent" points="8,-455.5 8,-474.5 232,-474.5 232,-455.5 8,-455.5"/>
          <polygon fill="none" stroke="black" points="8,-455.5 8,-474.5 232,-474.5 232,-455.5 8,-455.5"/>
          <text text-anchor="start" x="104.5" y="-461.9" font-family="Roboto" font-size="12.00" fill="white">Form</text>
          <polygon fill="#bbdefb" stroke="transparent" points="8,-436.5 8,-455.5 99,-455.5 99,-436.5 8,-436.5"/>
          <polygon fill="none" stroke="black" points="8,-436.5 8,-455.5 99,-455.5 99,-436.5 8,-436.5"/>
          <text text-anchor="start" x="30.5" y="-442.9" font-family="Roboto" font-size="12.00">id_form</text>
          <polygon fill="#bbdefb" stroke="transparent" points="99,-436.5 99,-455.5 232,-455.5 232,-436.5 99,-436.5"/>
          <polygon fill="none" stroke="black" points="99,-436.5 99,-455.5 232,-455.5 232,-436.5 99,-436.5"/>
          <text text-anchor="start" x="102" y="-442.9" font-family="Roboto" font-size="12.00">INTEGER (PK,Unique)</text>
          <polygon fill="#bbdefb" stroke="transparent" points="8,-417.5 8,-436.5 99,-436.5 99,-417.5 8,-417.5"/>
          <polygon fill="none" stroke="black" points="8,-417.5 8,-436.5 99,-436.5 99,-417.5 8,-417.5"/>
          <text text-anchor="start" x="19.5" y="-423.9" font-family="Roboto" font-size="12.00">id_question</text>
          <polygon fill="#bbdefb" stroke="transparent" points="99,-417.5 99,-436.5 232,-436.5 232,-417.5 99,-417.5"/>
          <polygon fill="none" stroke="black" points="99,-417.5 99,-436.5 232,-436.5 232,-417.5 99,-417.5"/>
          <text text-anchor="start" x="132.5" y="-423.9" font-family="Roboto" font-size="12.00">INTEGER ()</text>
          <polygon fill="#bbdefb" stroke="transparent" points="8,-398.5 8,-417.5 99,-417.5 99,-398.5 8,-398.5"/>
          <polygon fill="none" stroke="black" points="8,-398.5 8,-417.5 99,-417.5 99,-398.5 8,-398.5"/>
          <text text-anchor="start" x="23" y="-404.9" font-family="Roboto" font-size="12.00">id_answer</text>
          <polygon fill="#bbdefb" stroke="transparent" points="99,-398.5 99,-417.5 232,-417.5 232,-398.5 99,-398.5"/>
          <polygon fill="none" stroke="black" points="99,-398.5 99,-417.5 232,-417.5 232,-398.5 99,-398.5"/>
          <text text-anchor="start" x="132.5" y="-404.9" font-family="Roboto" font-size="12.00">INTEGER ()</text>
          <polygon fill="#bbdefb" stroke="transparent" points="8,-379.5 8,-398.5 99,-398.5 99,-379.5 8,-379.5"/>
          <polygon fill="none" stroke="black" points="8,-379.5 8,-398.5 99,-398.5 99,-379.5 8,-379.5"/>
          <text text-anchor="start" x="23" y="-385.9" font-family="Roboto" font-size="12.00">user_tg_id</text>
          <polygon fill="#bbdefb" stroke="transparent" points="99,-379.5 99,-398.5 232,-398.5 232,-379.5 99,-379.5"/>
          <polygon fill="none" stroke="black" points="99,-379.5 99,-398.5 232,-398.5 232,-379.5 99,-379.5"/>
          <text text-anchor="start" x="111" y="-385.9" font-family="Roboto" font-size="12.00">VARCHAR(1000) ()</text>
          <polygon fill="#bbdefb" stroke="transparent" points="8,-360.5 8,-379.5 99,-379.5 99,-360.5 8,-360.5"/>
          <polygon fill="none" stroke="black" points="8,-360.5 8,-379.5 99,-379.5 99,-360.5 8,-360.5"/>
          <text text-anchor="start" x="39" y="-366.9" font-family="Roboto" font-size="12.00">id_tg</text>
          <polygon fill="#bbdefb" stroke="transparent" points="99,-360.5 99,-379.5 232,-379.5 232,-360.5 99,-360.5"/>
          <polygon fill="none" stroke="black" points="99,-360.5 99,-379.5 232,-379.5 232,-360.5 99,-360.5"/>
          <text text-anchor="start" x="132.5" y="-366.9" font-family="Roboto" font-size="12.00">INTEGER ()</text>
          <polygon fill="#bbdefb" stroke="transparent" points="8,-341.5 8,-360.5 99,-360.5 99,-341.5 8,-341.5"/>
          <polygon fill="none" stroke="black" points="8,-341.5 8,-360.5 99,-360.5 99,-341.5 8,-341.5"/>
          <text text-anchor="start" x="11" y="-347.9" font-family="Roboto" font-size="12.00">id_forms_data</text>
          <polygon fill="#bbdefb" stroke="transparent" points="99,-341.5 99,-360.5 232,-360.5 232,-341.5 99,-341.5"/>
          <polygon fill="none" stroke="black" points="99,-341.5 99,-360.5 232,-360.5 232,-341.5 99,-341.5"/>
          <text text-anchor="start" x="132.5" y="-347.9" font-family="Roboto" font-size="12.00">INTEGER ()</text>
        </a>
      </g>
    </g>
    <!-- Form&#45;&gt;Question -->
    <g id="edge3" class="edge-hover edge-from-None edge-to-None">
      <title>Form-&gt;Question</title>
      <g id="a_edge3">
        <a xlink:title="Relation between Form and Question">
          <path fill="none" stroke="#1e88e5" stroke-dasharray="5,2" d="M66.99,-337.87C58.34,-323.11 50.68,-307.11 46,-291 30.86,-238.93 27.42,-219.94 46,-169 50.97,-155.38 58.51,-142.29 67.17,-130.23"/>
          <polygon fill="#1e88e5" stroke="#1e88e5" points="70.1,-132.15 73.32,-122.05 64.51,-127.94 70.1,-132.15"/>
        </a>
      </g>
      <text text-anchor="middle" x="72" y="-227.5" font-family="Roboto" font-size="10.00">id_chapter</text>
    </g>
    <!-- Form&#45;&gt;Question -->
    <g id="edge4" class="edge-hover edge-from-None edge-to-None">
      <title>Form-&gt;Question</title>
      <g id="a_edge4">
        <a xlink:title="Relation between Form and Question">
          <path fill="none" stroke="#1e88e5" stroke-dasharray="5,2" d="M122.66,-337.83C124.54,-290.26 127.22,-225.81 130,-169 130.58,-157.17 131.24,-144.6 131.91,-132.4"/>
          <polygon fill="#1e88e5" stroke="#1e88e5" points="135.41,-132.44 132.47,-122.26 128.42,-132.05 135.41,-132.44"/>
        </a>
      </g>
      <text text-anchor="middle" x="151.5" y="-227.5" font-family="Roboto" font-size="10.00">question</text>
    </g>
    <!-- Form&#45;&gt;Answer -->
    <g id="edge5" class="edge-hover edge-from-None edge-to-None">
      <title>Form-&gt;Answer</title>
      <g id="a_edge5">
        <a xlink:title="Relation between Form and Answer">
          <path fill="none" stroke="#1e88e5" stroke-dasharray="5,2" d="M188.13,-338C200.97,-324.89 214.38,-311.21 227.15,-298.18"/>
          <polygon fill="#1e88e5" stroke="#1e88e5" points="229.68,-300.6 234.18,-291.01 224.68,-295.7 229.68,-300.6"/>
        </a>
      </g>
      <text text-anchor="middle" x="229" y="-312" font-family="Roboto" font-size="10.00">answer</text>
    </g>
    <!-- FormsData -->
    <g id="node4" class="table-hover">
      <title>FormsData</title>
      <g id="a_node4">
        <a xlink:href="http://FormsData_details.html" xlink:title="&lt;TABLE&gt;">
          <polygon fill="#3f51b5" stroke="transparent" points="8,-605.5 8,-624.5 232,-624.5 232,-605.5 8,-605.5"/>
          <polygon fill="none" stroke="black" points="8,-605.5 8,-624.5 232,-624.5 232,-605.5 8,-605.5"/>
          <text text-anchor="start" x="87" y="-611.9" font-family="Roboto" font-size="12.00" fill="white">FormsData</text>
          <polygon fill="#bbdefb" stroke="transparent" points="8,-586.5 8,-605.5 99,-605.5 99,-586.5 8,-586.5"/>
          <polygon fill="none" stroke="black" points="8,-586.5 8,-605.5 99,-605.5 99,-586.5 8,-586.5"/>
          <text text-anchor="start" x="11" y="-592.9" font-family="Roboto" font-size="12.00">id_forms_data</text>
          <polygon fill="#bbdefb" stroke="transparent" points="99,-586.5 99,-605.5 232,-605.5 232,-586.5 99,-586.5"/>
          <polygon fill="none" stroke="black" points="99,-586.5 99,-605.5 232,-605.5 232,-586.5 99,-586.5"/>
          <text text-anchor="start" x="102" y="-592.9" font-family="Roboto" font-size="12.00">INTEGER (PK,Unique)</text>
          <polygon fill="#bbdefb" stroke="transparent" points="8,-567.5 8,-586.5 99,-586.5 99,-567.5 8,-567.5"/>
          <polygon fill="none" stroke="black" points="8,-567.5 8,-586.5 99,-586.5 99,-567.5 8,-567.5"/>
          <text text-anchor="start" x="36.5" y="-573.9" font-family="Roboto" font-size="12.00">result</text>
          <polygon fill="#bbdefb" stroke="transparent" points="99,-567.5 99,-586.5 232,-586.5 232,-567.5 99,-567.5"/>
          <polygon fill="none" stroke="black" points="99,-567.5 99,-586.5 232,-586.5 232,-567.5 99,-567.5"/>
          <text text-anchor="start" x="132.5" y="-573.9" font-family="Roboto" font-size="12.00">INTEGER ()</text>
          <polygon fill="#bbdefb" stroke="transparent" points="8,-548.5 8,-567.5 99,-567.5 99,-548.5 8,-548.5"/>
          <polygon fill="none" stroke="black" points="8,-548.5 8,-567.5 99,-567.5 99,-548.5 8,-548.5"/>
          <text text-anchor="start" x="14" y="-554.9" font-family="Roboto" font-size="12.00">created_date</text>
          <polygon fill="#bbdefb" stroke="transparent" points="99,-548.5 99,-567.5 232,-567.5 232,-548.5 99,-548.5"/>
          <polygon fill="none" stroke="black" points="99,-548.5 99,-567.5 232,-567.5 232,-548.5 99,-548.5"/>
          <text text-anchor="start" x="128.5" y="-554.9" font-family="Roboto" font-size="12.00">DATETIME ()</text>
          <polygon fill="#bbdefb" stroke="transparent" points="8,-529.5 8,-548.5 99,-548.5 99,-529.5 8,-529.5"/>
          <polygon fill="none" stroke="black" points="8,-529.5 8,-548.5 99,-548.5 99,-529.5 8,-529.5"/>
          <text text-anchor="start" x="21.5" y="-535.9" font-family="Roboto" font-size="12.00">id_chapter</text>
          <polygon fill="#bbdefb" stroke="transparent" points="99,-529.5 99,-548.5 232,-548.5 232,-529.5 99,-529.5"/>
          <polygon fill="none" stroke="black" points="99,-529.5 99,-548.5 232,-548.5 232,-529.5 99,-529.5"/>
          <text text-anchor="start" x="132.5" y="-535.9" font-family="Roboto" font-size="12.00">INTEGER ()</text>
        </a>
      </g>
    </g>
    <!-- FormsData&#45;&gt;Form -->
    <g id="edge6" class="edge-hover edge-from-None edge-to-None">
      <title>FormsData-&gt;Form</title>
      <g id="a_edge6">
        <a xlink:title="Relation between FormsData and Form">
          <path fill="none" stroke="#1e88e5" stroke-dasharray="5,2" d="M120,-525.94C120,-514.47 120,-502 120,-489.64"/>
          <polygon fill="#1e88e5" stroke="#1e88e5" points="123.5,-489.3 120,-479.3 116.5,-489.3 123.5,-489.3"/>
        </a>
      </g>
      <text text-anchor="middle" x="132" y="-500" font-family="Roboto" font-size="10.00">form</text>
    </g>
  </g>
</svg>
